<svg id="svg" version="1.1" width="400" height="400" viewBox="0 0 400 400" xmlns="http://www.w3.org/2000/svg" xmlns:xlink="http://www.w3.org/1999/xlink" ><g id="svgg"><path id="path0" d="M50.195 115.129 C 22.910 162.543,0.586 201.712,0.586 202.169 C 0.586 202.627,22.976 241.701,50.341 289.001 L 100.095 375.000 200.145 374.993 L 300.195 374.985 349.805 288.777 C 377.090 241.363,399.414 202.194,399.414 201.736 C 399.414 201.277,377.024 162.203,349.658 114.904 L 299.901 28.906 199.853 28.914 L 99.805 28.921 50.195 115.129 M273.438 82.438 C 305.540 87.503,312.429 131.193,283.398 145.602 C 275.889 149.329,277.973 149.212,219.043 149.216 L 167.188 149.219 167.188 166.406 L 167.188 183.594 214.551 183.599 C 268.972 183.605,265.915 183.424,273.242 187.067 C 297.867 199.310,297.867 233.893,273.242 246.136 C 265.915 249.779,268.970 249.598,214.570 249.604 L 167.225 249.609 167.091 274.512 C 166.969 297.140,166.892 299.646,166.246 301.953 C 156.842 335.572,110.522 335.572,100.927 301.953 C 100.049 298.877,99.540 116.852,100.393 110.850 C 102.412 96.630,113.297 85.310,127.539 82.618 C 131.038 81.957,269.307 81.786,273.438 82.438 " stroke="none" fill="#000000" fill-rule="evenodd"></path><path id="path1" d="M127.539 82.618 C 113.297 85.310,102.412 96.630,100.393 110.850 C 99.540 116.852,100.049 298.877,100.927 301.953 C 110.522 335.572,156.842 335.572,166.246 301.953 C 166.892 299.646,166.969 297.140,167.091 274.512 L 167.225 249.609 214.570 249.604 C 268.970 249.598,265.915 249.779,273.242 246.136 C 297.867 233.893,297.867 199.310,273.242 187.067 C 265.915 183.424,268.972 183.605,214.551 183.599 L 167.188 183.594 167.188 166.406 L 167.188 149.219 219.043 149.216 C 277.973 149.212,275.889 149.329,283.398 145.602 C 312.429 131.193,305.540 87.503,273.438 82.438 C 269.307 81.786,131.038 81.957,127.539 82.618 " stroke="none" fill="#ffffff" fill-rule="evenodd"></path></g></svg>